<svg xmlns="http://www.w3.org/2000/svg" viewBox="0 0 24 24" fill="currentColor" aria-hidden="true">
  <path fill-rule="evenodd" clip-rule="evenodd" d="M12 .5C5.73.5.75 5.7.75 12.1c0 5.13 3.29 9.48 7.86 11.02.58.11.8-.26.8-.57v-2.05c-3.2.71-3.88-1.59-3.88-1.59-.53-1.38-1.3-1.75-1.3-1.75-1.06-.75.08-.74.08-.74 1.17.09 1.79 1.25 1.79 1.25 1.04 1.82 2.73 1.3 3.4.99.11-.78.41-1.3.74-1.6-2.55-.3-5.23-1.31-5.23-5.84 0-1.29.45-2.35 1.19-3.18-.12-.3-.52-1.52.11-3.17 0 0 .97-.32 3.18 1.22.92-.26 1.9-.39 2.88-.39.98 0 1.96.13 2.88.39 2.2-1.54 3.18-1.22 3.18-1.22.63 1.65.23 2.87.11 3.17.74.83 1.19 1.89 1.19 3.18 0 4.54-2.68 5.54-5.24 5.83.42.38.79 1.12.79 2.26v3.35c0 .31.21.68.81.57 4.56-1.54 7.85-5.89 7.85-11.02C23.25 5.7 18.27.5 12 .5Z"></path>
</svg>
